<svg width="40" height="40" viewBox="0 0 40 40" fill="none" xmlns="http://www.w3.org/2000/svg">
<path d="M20 19.5C17 19.5 14.5 17 14.5 14C14.5 11 17 8.5 20 8.5C23 8.5 25.5 11 25.5 14C25.5 17 23 19.5 20 19.5ZM20 10.5C18.1 10.5 16.5 12.1 16.5 14C16.5 15.9 18.1 17.5 20 17.5C21.9 17.5 23.5 15.9 23.5 14C23.5 12.1 21.9 10.5 20 10.5Z" fill="#bbbbbb"/>
<path d="M20 32.5999C15.5 32.5999 11 31.2999 11 28.7999V27.8999C11 23.7999 14.3 21.3999 20 21.3999C25.7 21.3999 29 23.7999 29 27.8999V28.7999C29 31.2999 24.5 32.5999 20 32.5999ZM20 23.3999C16.8 23.3999 13 24.1999 13 27.8999V28.7999C13 29.1999 15.3 30.5999 20 30.5999C24.7 30.5999 27 29.1999 27 28.7999V27.8999C27 24.0999 23.2 23.3999 20 23.3999Z" fill="#bbbbbb"/>
</svg>
